<svg width="60" height="60" viewBox="0 0 60 60" fill="none" xmlns="http://www.w3.org/2000/svg">
<circle cx="29.8876" cy="29.8876" r="29.8876" fill="#DEDBEE"/>
<path d="M34.6468 41.4778V32.9799H37.4928L37.9186 29.6764H34.6468V27.5684C34.6468 26.612 34.9127 25.9594 36.2839 25.9594H38.0332V23.0048C37.1864 22.9149 36.3353 22.8714 35.4837 22.8743C32.9621 22.8743 31.236 24.4138 31.236 27.2415V29.6764H28.3838V32.9799H31.236V41.4778H20.7375C20.4139 41.4778 20.1037 41.3492 19.8749 41.1205C19.6461 40.8917 19.5176 40.5814 19.5176 40.2579V20.7394C19.5176 20.4159 19.6461 20.1056 19.8749 19.8768C20.1037 19.6481 20.4139 19.5195 20.7375 19.5195H40.2559C40.5794 19.5195 40.8897 19.6481 41.1185 19.8768C41.3473 20.1056 41.4758 20.4159 41.4758 20.7394V40.2579C41.4758 40.5814 41.3473 40.8917 41.1185 41.1205C40.8897 41.3492 40.5794 41.4778 40.2559 41.4778H34.6468Z" fill="#1E1E1E"/>
</svg>
