<svg width="61" height="60" viewBox="0 0 61 60" fill="none" xmlns="http://www.w3.org/2000/svg">
<circle cx="30.2138" cy="29.8876" r="29.8876" fill="#DEDBEE"/>
<path d="M30.8221 18.2988C34.1365 18.2988 34.5501 18.311 35.8505 18.372C37.1497 18.433 38.0341 18.6367 38.8124 18.9393C39.6176 19.2491 40.2958 19.6688 40.9741 20.3458C41.5944 20.9556 42.0744 21.6933 42.3806 22.5075C42.682 23.2846 42.8869 24.1702 42.9479 25.4694C43.0052 26.7698 43.0211 27.1834 43.0211 30.4978C43.0211 33.8123 43.0089 34.2259 42.9479 35.5263C42.8869 36.8255 42.682 37.7099 42.3806 38.4882C42.0753 39.3028 41.5952 40.0407 40.9741 40.6499C40.3641 41.27 39.6265 41.7499 38.8124 42.0564C38.0353 42.3577 37.1497 42.5627 35.8505 42.6237C34.5501 42.681 34.1365 42.6969 30.8221 42.6969C27.5076 42.6969 27.094 42.6847 25.7936 42.6237C24.4944 42.5627 23.61 42.3577 22.8317 42.0564C22.0172 41.7508 21.2794 41.2707 20.67 40.6499C20.0496 40.0401 19.5696 39.3025 19.2635 38.4882C18.961 37.7111 18.7572 36.8255 18.6962 35.5263C18.6389 34.2259 18.623 33.8123 18.623 30.4978C18.623 27.1834 18.6352 26.7698 18.6962 25.4694C18.7572 24.169 18.961 23.2858 19.2635 22.5075C19.5688 21.6928 20.0489 20.9549 20.67 20.3458C21.2796 19.7252 22.0173 19.2451 22.8317 18.9393C23.61 18.6367 24.4932 18.433 25.7936 18.372C27.094 18.3147 27.5076 18.2988 30.8221 18.2988ZM30.8221 24.3983C29.2044 24.3983 27.6529 25.041 26.5091 26.1848C25.3652 27.3287 24.7226 28.8802 24.7226 30.4978C24.7226 32.1155 25.3652 33.667 26.5091 34.8109C27.6529 35.9547 29.2044 36.5974 30.8221 36.5974C32.4398 36.5974 33.9912 35.9547 35.1351 34.8109C36.2789 33.667 36.9216 32.1155 36.9216 30.4978C36.9216 28.8802 36.2789 27.3287 35.1351 26.1848C33.9912 25.041 32.4398 24.3983 30.8221 24.3983ZM38.7514 24.0934C38.7514 23.6889 38.5908 23.3011 38.3048 23.0151C38.0188 22.7291 37.631 22.5685 37.2266 22.5685C36.8221 22.5685 36.4343 22.7291 36.1483 23.0151C35.8623 23.3011 35.7017 23.6889 35.7017 24.0934C35.7017 24.4978 35.8623 24.8856 36.1483 25.1716C36.4343 25.4576 36.8221 25.6182 37.2266 25.6182C37.631 25.6182 38.0188 25.4576 38.3048 25.1716C38.5908 24.8856 38.7514 24.4978 38.7514 24.0934ZM30.8221 26.8381C31.7927 26.8381 32.7235 27.2237 33.4099 27.91C34.0962 28.5964 34.4818 29.5272 34.4818 30.4978C34.4818 31.4685 34.0962 32.3993 33.4099 33.0857C32.7235 33.772 31.7927 34.1576 30.8221 34.1576C29.8515 34.1576 28.9206 33.772 28.2343 33.0857C27.5479 32.3993 27.1624 31.4685 27.1624 30.4978C27.1624 29.5272 27.5479 28.5964 28.2343 27.91C28.9206 27.2237 29.8515 26.8381 30.8221 26.8381Z" fill="#1E1E1E"/>
</svg>
