<svg width="24" height="24" viewBox="0 0 24 24" fill="none" xmlns="http://www.w3.org/2000/svg">
<g clip-path="url(#clip0_248_42814)">
<path d="M22.2234 0H1.77187C0.792187 0 0 0.773331 0 1.72945V22.2626C0 23.2187 0.792187 23.9967 1.77187 23.9967H22.2234C23.2031 23.9967 24 23.2187 24 22.2672V1.72945C24 0.773331 23.2031 0 22.2234 0ZM7.12031 20.4487H3.55781V8.99407H7.12031V20.4487ZM5.33906 7.43335C4.19531 7.43335 3.27188 6.51004 3.27188 5.37113C3.27188 4.23223 4.19531 3.30892 5.33906 3.30892C6.47813 3.30892 7.40156 4.23223 7.40156 5.37113C7.40156 6.50535 6.47813 7.43335 5.33906 7.43335ZM20.4516 20.4487H16.8937V14.8808C16.8937 13.5544 16.8703 11.8437 15.0422 11.8437C13.1906 11.8437 12.9094 13.2919 12.9094 14.787V20.4487H9.35625V8.99407H12.7687V10.5595H12.8156C13.2891 9.65961 14.4516 8.70818 16.1813 8.70818C19.7859 8.70818 20.4516 11.0797 20.4516 14.1637V20.4487Z" fill="#6C6C6C"/>
</g>
<defs>
<clipPath id="clip0_248_42814">
<rect width="24" height="23.9967" fill="white"/>
</clipPath>
</defs>
</svg>
